<?xml version="1.0" encoding="UTF-8"?>
<!DOCTYPE svg  PUBLIC '-//W3C//DTD SVG 1.1//EN'  'http://www.w3.org/Graphics/SVG/1.1/DTD/svg11.dtd'>
<svg class="marvel-logo" clip-rule="evenodd" fill-rule="evenodd" stroke-linejoin="round" stroke-miterlimit="1.4142" version="1.1" viewBox="0 0 1000 403" xml:space="preserve" xmlns="http://www.w3.org/2000/svg">
  <rect width="1e3" height="402.47" class="marvel-logo-wrap"/>
  <path d="m846.25 93.792v-61.603h-171.42l-28.191 205.8-27.896-205.8h-61.817l6.925 54.915c-7.14-14.068-32.449-54.915-88.146-54.915-0.367-0.024-61.901 0-61.901 0l-0.237 299.97-45.057-299.97-80.959-0.047-46.612 310.81 0.024-310.77h-77.483l-27.933 174.58-27.208-174.58h-77.508v337.91h61.036v-162.87l27.764 162.87h32.449l27.374-162.87v162.87h117.67l7.14-51.995h47.374l7.116 51.995 115.52 0.071h0.094v-0.071h0.144v-109.68l14.162-2.063 29.319 111.82h59.752l-0.024-0.071h0.178l-38.475-131.06c19.498-14.422 41.513-51.047 35.654-86.084v-0.023c0.07 0.474 36.316 217.38 36.316 217.38l71.065-0.216 48.559-306.28v306.28h115.24v-60.773h-54.7v-77.496h54.7v-61.698h-54.7v-76.334h54.697zm-534.8 170.72l16.758-144.46 17.4 144.46h-34.158zm177.42-66.704c-4.697 2.278-9.595 3.417-14.363 3.417v-108.69c0.083 0 0.179-0.022 0.297-0.022 4.78-0.024 40.419 1.446 40.419 53.774 0 27.373-12.121 44.62-26.353 51.522m480.36 111.46v60.772h-112.41v-337.9h60.526v277.13h51.888z" class="marvel-logo-text"/>
</svg>
